<?xml version="1.0" encoding="utf-8"?>
<!-- Generator: Adobe Illustrator 25.4.1, SVG Export Plug-In . SVG Version: 6.00 Build 0)  -->
<svg version="1.1" id="Layer_1" xmlns="http://www.w3.org/2000/svg" xmlns:xlink="http://www.w3.org/1999/xlink" x="0px" y="0px"
	 viewBox="0 0 103 103" style="enable-background:new 0 0 103 103;" xml:space="preserve">
<style type="text/css">
	.st0{fill-rule:evenodd;clip-rule:evenodd;fill:#FFFFFF;}
</style>
<g>
	<path class="st0" d="M40.4,28.9l-7.8,1.6l-4.4,8.3l7.8-1.6L40.4,28.9z M76.7,51h-1.6l4.4-5.5h-8.1L67,51h-6.2l4.4-5.5h-8.1L52.7,51
		h-6.2l4.4-5.5H43L38.6,51h-6.2l4.4-5.5h-8.1L24.3,51h-1.1v25.4c0,2.5,2.1,4.4,4.4,4.4h49.1c2.3,0,4.2-1.8,4.2-4.4V51H76.7z
		 M46.2,72.7L46.2,72.7H31.4c-0.9,0-1.8-0.7-1.8-1.6c0-1.2,0.9-1.8,1.8-1.8h14.8c0.9,0,1.6,0.7,1.6,1.8C47.8,72,47.1,72.7,46.2,72.7
		L46.2,72.7z M66.3,65.5L66.3,65.5h-33c-2.1,0-3.7-1.6-3.7-3.7c0-2.1,1.6-3.7,3.7-3.7h33c2.1,0,3.7,1.6,3.7,3.7
		C70,63.9,68.4,65.5,66.3,65.5L66.3,65.5z M25.7,31.9c-2.3,0.5-3.7,2.8-3.2,5.1l0.5,1.8l3.5-7.1L25.7,31.9z M79.2,26.8
		c-0.2-0.4-0.2-1.1-0.5-1.6c-0.2-0.9-0.9-2.1-1.8-2.3c-0.7-0.5-1.4-0.7-2.5-0.7l-4.2,8.3l9.2-1.9L79.2,26.8z M68.4,23.4L60.5,25
		l-4.2,8.3l7.8-1.6L68.4,23.4z M54.5,26.1l-8.1,1.6l-4.1,8.3l7.8-1.6L54.5,26.1z"/>
</g>
</svg>
