<svg xmlns="http://www.w3.org/2000/svg" xmlns:xlink="http://www.w3.org/1999/xlink" viewBox="0 0 1694.94 510.24"><defs><style>.cls-1{fill:url(#Degradado_sin_nombre_16);}.cls-2{fill:url(#Degradado_sin_nombre_44);}.cls-3{fill:url(#Degradado_sin_nombre_52);}.cls-4{fill:url(#Degradado_sin_nombre_36);}.cls-5{fill:url(#Degradado_sin_nombre_36-2);}.cls-6{fill:url(#Degradado_sin_nombre_25);}.cls-7{fill:url(#Degradado_sin_nombre_25-2);}.cls-8{fill:url(#Degradado_sin_nombre_52-2);}.cls-9{fill:url(#Degradado_sin_nombre_52-3);}.cls-10{fill:url(#Degradado_sin_nombre_52-4);}.cls-11{fill:url(#Degradado_sin_nombre_59);}.cls-12{fill:url(#Degradado_sin_nombre_44-2);}.cls-13{fill:#5d5d5d;}</style><linearGradient id="Degradado_sin_nombre_16" x1="372.69" y1="91.76" x2="372.69" y2="202.14" gradientTransform="translate(213.06 -220.5) rotate(45)" gradientUnits="userSpaceOnUse"><stop offset="0" stop-color="#70b6cf"/><stop offset="1" stop-color="#2e94b9"/></linearGradient><linearGradient id="Degradado_sin_nombre_44" x1="151.18" y1="96.79" x2="151.18" y2="202.78" gradientTransform="translate(148.18 -63.86) rotate(45)" gradientUnits="userSpaceOnUse"><stop offset="0" stop-color="#e7a5ae"/><stop offset="1" stop-color="#d25565"/></linearGradient><linearGradient id="Degradado_sin_nombre_52" x1="206.56" y1="151.36" x2="206.56" y2="255.25" gradientTransform="translate(203.56 -86.8) rotate(45)" gradientUnits="userSpaceOnUse"><stop offset="0" stop-color="#f7dab8"/><stop offset="1" stop-color="#f0b775"/></linearGradient><linearGradient id="Degradado_sin_nombre_36" x1="261.94" y1="202.44" x2="261.94" y2="313.01" gradientTransform="translate(258.94 -109.74) rotate(45)" gradientUnits="userSpaceOnUse"><stop offset="0" stop-color="#caefdb"/><stop offset="1" stop-color="#98dfb9"/></linearGradient><linearGradient id="Degradado_sin_nombre_36-2" x1="483.45" y1="203.11" x2="483.45" y2="313.44" gradientTransform="translate(323.82 -266.37) rotate(45)" xlink:href="#Degradado_sin_nombre_36"/><linearGradient id="Degradado_sin_nombre_25" x1="317.31" y1="146.94" x2="317.31" y2="257.86" gradientTransform="translate(236 -165.12) rotate(45)" gradientUnits="userSpaceOnUse"><stop offset="0" stop-color="#93dcdb"/><stop offset="1" stop-color="#2ebcb9"/></linearGradient><linearGradient id="Degradado_sin_nombre_25-2" x1="428.07" y1="149.75" x2="428.07" y2="258.51" gradientTransform="translate(268.44 -243.43) rotate(45)" xlink:href="#Degradado_sin_nombre_25"/><linearGradient id="Degradado_sin_nombre_52-2" x1="538.83" y1="149.26" x2="538.83" y2="255.99" gradientTransform="translate(300.88 -321.75) rotate(45)" xlink:href="#Degradado_sin_nombre_52"/><linearGradient id="Degradado_sin_nombre_52-3" x1="428.07" y1="257.35" x2="428.07" y2="370.23" gradientTransform="translate(346.76 -210.99) rotate(45)" xlink:href="#Degradado_sin_nombre_52"/><linearGradient id="Degradado_sin_nombre_52-4" x1="317.31" y1="257.35" x2="317.31" y2="370.23" gradientTransform="translate(314.32 -132.68) rotate(45)" xlink:href="#Degradado_sin_nombre_52"/><linearGradient id="Degradado_sin_nombre_59" x1="372.69" y1="316.11" x2="372.69" y2="422.85" gradientTransform="translate(369.7 -155.62) rotate(45)" gradientUnits="userSpaceOnUse"><stop offset="0" stop-color="#fffee0"/><stop offset="1" stop-color="#fffdc1"/></linearGradient><linearGradient id="Degradado_sin_nombre_44-2" x1="594.21" y1="90.49" x2="594.21" y2="201.4" gradientTransform="translate(277.94 -377.13) rotate(45)" xlink:href="#Degradado_sin_nombre_44"/></defs><title>WabiMenú</title><g id="Capa_5" data-name="Capa 5"><rect class="cls-1" x="333.53" y="107.78" width="78.32" height="78.32" transform="translate(5.26 306.57) rotate(-45)"/><rect class="cls-2" x="112.02" y="107.78" width="78.32" height="78.32" transform="translate(-59.62 149.94) rotate(-45)"/><rect class="cls-3" x="167.4" y="163.16" width="78.32" height="78.32" transform="translate(-82.56 205.32) rotate(-45)"/><rect class="cls-4" x="222.78" y="218.54" width="78.32" height="78.32" transform="translate(-105.5 260.69) rotate(-45)"/><rect class="cls-5" x="444.29" y="218.54" width="78.32" height="78.32" transform="translate(-40.62 417.33) rotate(-45)"/><rect class="cls-6" x="278.16" y="163.16" width="78.32" height="78.32" transform="translate(-50.12 283.63) rotate(-45)"/><rect class="cls-7" x="388.91" y="163.16" width="78.32" height="78.32" transform="translate(-17.68 361.95) rotate(-45)"/><rect class="cls-8" x="499.67" y="163.16" width="78.32" height="78.32" transform="translate(14.76 440.27) rotate(-45)"/><rect class="cls-9" x="388.91" y="273.92" width="78.32" height="78.32" transform="translate(-96 394.39) rotate(-45)"/><rect class="cls-10" x="278.16" y="273.92" width="78.32" height="78.32" transform="translate(-128.44 316.07) rotate(-45)"/><rect class="cls-11" x="333.53" y="329.3" width="78.32" height="78.32" transform="translate(-151.38 371.45) rotate(-45)"/><rect class="cls-12" x="555.05" y="107.78" width="78.32" height="78.32" transform="translate(70.14 463.21) rotate(-45)"/></g><g id="Capa_6" data-name="Capa 6"><path class="cls-13" d="M927,229.27l-21-67h-20v-6.66H994.64v6.66H974l52.26,165.9,42.09-165.9h-35.43v-6.66H1103v6.66h-23.15l-64.53,242.36H984.12L932.21,246.11,886.62,404.64H856.11L767.72,162.28H751.24v-6.66h114v6.66H840.67l57.17,168Z"/><path class="cls-13" d="M1171.42,318.71v-27c0-44.54-3.86-56.11-17.89-56.11-6.31,0-16.48,2.8-16.48,14a31,31,0,0,0,2.1,10.17h8.77a41,41,0,0,1,2.81,15.78c0,16.48-13.33,27.36-30.87,27.36-21.74,0-30.16-11.93-30.16-29.11,0-29.47,25.6-43.15,73.3-43.15,55.07,0,73.65,15.44,73.65,66.29v71.2c0,14.38,4.21,18.24,10.17,18.24,6.32,0,12.28-6.66,14-36.13l5.26.35c-1.75,42.09-14.73,54-44.89,54-28.41,0-44.19-8.77-48.4-26-5.61,16.84-15.78,26-40.33,26s-51.91-7.37-51.91-42.44c0-35.42,30.51-43.49,80.66-43.49Zm0,38.23V324.32H1169c-14.73,0-21.74,10.52-21.74,31.92v5.61c0,25.25,2.45,28.76,9.12,28.76S1171.42,379.38,1171.42,356.94Z"/><path class="cls-13" d="M1354.15,260.84c7.72-17.54,20.34-30.17,47-30.17,40,0,64.18,27.36,64.18,87.34s-24.55,86.63-72.25,86.63c-24.2,0-36.13-6.67-41-24.2l-2.45,20.69h-80v-6.31h19.29V144.4h-19.29v-6.32h84.53Zm0,32.27v65.23c0,18.94,8.07,36.13,22.8,36.13,17.18,0,20.69-20.7,20.69-69.45V306.78c0-49.45-4.21-61-16.13-61C1367.13,245.76,1354.15,262.59,1354.15,293.11Z"/><path class="cls-13" d="M1560.38,234.18V394.82H1580v6.31H1475.85v-6.31h19.29V240.5h-20.69v-6.32Zm-31.57-89.43c21.75,0,34.73,10.87,34.73,32.26,0,18.59-10.17,33-35.43,33-28.41,0-35.07-17.88-35.07-32.62C1493,160.18,1502.51,144.75,1528.81,144.75Z"/></g></svg>